<svg width="512" height="510" viewBox="0 0 512 510" fill="none" xmlns="http://www.w3.org/2000/svg">
<path d="M230.562 0.6875C231.455 0.669695 232.347 0.65189 233.266 0.633545C245.875 0.648859 256.93 5.67456 266.223 14.1367C286.15 35.0273 291.754 64.152 291.246 92.1133C290.416 117.372 283.394 141.907 265 160C264.415 160.584 263.83 161.168 263.227 161.77C257.433 167.142 250.527 170.41 242.938 172.438C228.13 176.619 215.352 190.815 207.875 203.75C194.919 227.009 190.544 253.845 197.672 279.852C205.622 305.843 222.48 326.89 246.312 339.875C270.066 352.182 296.544 353.739 322 346C334.386 341.698 345.034 335.465 355 327C355.977 326.223 356.954 325.445 357.961 324.645C371.259 313.53 380.662 295.532 385 279C385.211 278.198 385.423 277.396 385.641 276.57C391.239 252.179 386.555 226.455 374 205C362.984 187.925 349.26 176.958 331.845 167.056C329.543 165.738 327.268 164.377 325 163C329.577 152.614 334.223 142.261 338.938 131.938C339.664 130.34 339.664 130.34 340.406 128.711C341.085 127.228 341.085 127.228 341.777 125.715C342.182 124.829 342.587 123.944 343.004 123.031C344 121 344 121 345 120C349.161 119.754 353.329 119.771 357.496 119.76C359.568 119.75 361.639 119.719 363.711 119.688C376.01 119.589 387.82 121.4 399.438 125.625C400.136 125.877 400.835 126.13 401.556 126.39C414.771 131.38 426.169 139.049 437 148C438.156 148.944 438.156 148.944 439.336 149.906C444.055 153.884 448.088 158.235 452 163C453.27 164.514 453.27 164.514 454.566 166.059C460.674 173.479 465.606 181.125 470.125 189.602C473.123 195.035 474.719 197.223 480.625 199.375C494.146 204.751 502.425 212.92 508.773 226.008C513.719 238.073 514.133 253.252 509.273 265.453C507.206 269.588 504.792 273.321 502 277C501.34 277.908 500.68 278.815 500 279.75C497.522 282.538 494.971 284.739 492 287C491.34 287 490.68 287 490 287C489.974 287.839 489.948 288.678 489.922 289.543C488.73 314.822 482.021 340.473 469.656 362.622C467.545 366.14 467.545 366.14 467.323 370.086C468.151 372.427 469.351 374.12 470.812 376.125C478.926 387.944 480.908 401.554 478.352 415.551C474.586 428.986 466.763 440.413 454.542 447.301C440.941 454.457 427.116 455.666 412.289 451.18C407.886 449.568 404.077 447.495 400.203 444.859C399.411 444.323 398.618 443.786 397.802 443.233C397.207 442.826 396.613 442.419 396 442C395.525 442.281 395.05 442.562 394.561 442.851C373.183 455.36 348.998 466.541 324.203 469.828C314.537 470.597 314.537 470.597 306.855 475.562C305.626 478.611 305.626 478.611 304.871 481.832C302.489 490.494 294.371 497.332 287 502C273.601 509.291 259.745 511.226 244.914 507.039C231.621 502.299 222.664 494.329 216 482C213.688 477.06 212.032 472.352 211 467C210.387 466.819 209.774 466.639 209.143 466.453C184.25 459.084 160.67 450.6 138.684 436.491C137.647 435.829 137.647 435.829 136.59 435.152C135.99 434.76 135.391 434.368 134.773 433.965C132.816 432.9 131.207 432.316 129 432C125.985 433.372 125.985 433.372 122.75 435.312C110.236 442.04 96.8015 442.227 83.2539 438.18C75.1798 435.255 68.7466 430.336 63 424C62.4444 423.399 61.8888 422.799 61.3164 422.18C51.4757 410.709 49.7241 397.83 50.7607 383.257C51.7067 374.332 55.469 367.634 60.8047 360.57C62.2932 358.029 62.2932 358.029 61.4453 355.18C60.0731 352.161 58.6373 349.195 57.1313 346.241C52.4664 337.001 48.8904 327.49 45.625 317.688C45.2086 316.449 44.7923 315.211 44.3633 313.936C37.6612 293.403 37.6612 293.403 38 284C37.3941 283.853 36.7883 283.706 36.1641 283.555C24.8267 280.52 14.0703 274.392 7.84863 264.094C0.286624 250.389 -2.38995 237.155 0.683592 221.523C1.607 218.864 2.66969 216.479 4 214C4.4357 213.144 4.8714 212.288 5.32031 211.406C10.6782 201.686 18.0658 194.9 28 190C28.8045 189.781 29.6091 189.561 30.438 189.335C35.7772 187.796 35.7772 187.796 39.2388 183.724C40.0757 180.743 40.6325 177.807 41.125 174.75C41.581 172.479 42.0461 170.209 42.5195 167.941C42.7549 166.785 42.9904 165.629 43.2329 164.438C44.4295 159.075 46.0617 153.892 47.8125 148.688C48.1406 147.707 48.4686 146.727 48.8066 145.717C51.4832 137.985 54.7174 130.555 58.3821 123.241C58.7536 122.476 59.1251 121.71 59.5078 120.922C59.8444 120.258 60.181 119.593 60.5278 118.909C61.2093 116.945 61.2093 116.945 60.1831 114.928C59.5975 113.974 59.5975 113.974 59 113C57.9955 111.065 56.9959 109.127 56 107.188C55.4844 106.191 54.9687 105.195 54.4375 104.168C49.4385 93.1511 49.0463 78.8838 52.625 67.3125C54.7272 62.0459 57.5726 57.4979 61 53C61.7425 51.9688 62.485 50.9375 63.25 49.875C71.6978 41.0433 83.6634 34.7117 96 34C97.9491 33.8453 97.9491 33.8453 99.9375 33.6875C105.286 33.706 110.309 35.2023 115.416 36.6648C119.038 37.6702 121.442 38.2447 125 37C126.803 35.9401 126.803 35.9401 128.547 34.5938C129.218 34.1017 129.89 33.6096 130.581 33.1025C131.297 32.5737 132.013 32.0449 132.75 31.5C162.116 10.3932 194.545 1.14015 230.562 0.6875ZM224 37C221.664 39.8304 219.808 42.8117 218 46C217.447 46.9069 217.447 46.9069 216.883 47.832C206.526 66.2576 206.129 92.82 211.605 112.801C214.935 123.456 219.975 135.345 230 141.16C233.388 142.583 235.496 141.993 239 141C251.168 133.28 255.349 119.288 258.754 106.074C262.937 85.3932 260.403 61.1067 249.125 43.0625C245.39 37.8752 241.681 33.9263 235.562 31.8125C230.593 32.074 227.683 33.7071 224 37ZM176.625 42C175.914 42.3132 175.203 42.6265 174.47 42.9492C157.443 50.3822 157.443 50.3822 145 63C145.511 65.0655 145.511 65.0655 146.375 67.3125C150.552 78.8104 150.284 91.5449 146 103C140.554 114.554 132.789 123.708 121 129C109.979 132.853 99.5982 133.517 88 133C83.1323 143.137 79.038 153.341 75.625 164.062C75.2918 165.108 74.9586 166.153 74.6152 167.23C70.8836 178.889 70.8836 178.889 70 191C70.8527 191.437 70.8527 191.437 71.7227 191.883C84.2673 198.543 91.0877 207.333 96.2734 220.613C100.261 233.712 98.4355 247.792 92.1875 259.812C86.4636 269.567 79.2057 275.999 69 281C69.5735 287.491 70.699 293.492 72.5 299.75C72.8866 301.098 72.8866 301.098 73.281 302.474C77.3955 316.243 83.4952 329.219 90 342C91.0158 341.965 92.0316 341.93 93.0781 341.895C109.722 341.495 123.385 344.879 135.742 356.617C144.71 366.081 149.153 377.894 149.125 390.875C149.129 392.635 149.129 392.635 149.133 394.43C148.999 398.017 148.571 401.458 148 405C169.259 419.358 191.911 430.194 217 436C217.445 435.314 217.889 434.629 218.347 433.923C225.88 422.448 235.275 414.6 248.807 411.393C252.659 410.703 256.471 410.66 260.375 410.688C261.214 410.693 262.052 410.699 262.916 410.705C269.045 410.825 274.372 411.425 280 414C280.898 414.402 281.797 414.804 282.723 415.219C294.457 421.029 300.993 429.584 307 441C328.547 439.94 350.483 431.046 369.262 420.873C371 420 371 420 374.215 418.828C377.369 417.536 378.984 416.77 381 414C381.833 409.32 381.359 404.559 381.113 399.84C380.595 388.14 386.198 377.65 393.738 369.008C405.301 357.866 419.576 354.717 435.035 354.93C436.503 354.964 436.503 354.964 438 355C448.262 337.517 458 315.667 458 295C457.189 294.853 456.378 294.706 455.543 294.555C440.007 291.408 428.948 284.016 420 271C419.34 271 418.68 271 418 271C417.781 272.258 417.562 273.516 417.336 274.812C411.322 307.887 394.709 338.064 367 358C352.112 368.133 336.485 374.846 319 379C318.014 379.236 317.028 379.472 316.012 379.715C283.05 386.567 248.305 378.806 220.195 360.847C195.278 344.027 177.452 319.462 168.688 290.875C168.445 290.089 168.202 289.302 167.952 288.492C164.62 277.036 163.633 265.643 163.688 253.75C163.695 251.843 163.695 251.843 163.702 249.898C163.822 240.274 164.606 231.315 167 222C167.161 221.359 167.322 220.718 167.488 220.058C172.992 198.746 184.596 174.093 203 161C201.352 157.345 199.102 154.299 196.75 151.062C192.275 144.728 188.901 138.209 186 131C185.621 130.059 185.242 129.118 184.852 128.148C174.359 99.512 177.236 67.3269 187 39C183.097 39 180.132 40.4538 176.625 42ZM84.3477 74.0625C81.1929 78.5981 81.5604 83.6996 82 89C83.7991 94.5032 87.3447 97.7663 92 101C97.0135 103.507 101.655 103.324 107 102C112.194 99.2562 115.468 95.835 118.25 90.6875C120.019 84.3476 119.427 79.4897 116.266 73.8242C112.937 69.0258 108.708 66.3359 103 65C94.8255 63.9244 89.3221 68.0796 84.3477 74.0625ZM367 151C370.169 154.275 373.473 157.341 376.875 160.375C378.584 161.915 380.293 163.457 382 165C382.611 165.543 383.222 166.085 383.852 166.645C398.616 180.464 408.074 200.279 413.844 219.34C414.719 222.11 415.582 224.486 417 227C417.493 225.966 417.493 225.966 417.996 224.91C423.215 214.6 429.957 207.66 440 202C438.043 188.845 421.299 174.687 411.297 167.109C398.594 157.994 382.854 151 367 151ZM34.0625 224.062C30.3144 229.401 30.3623 234.667 31 241C32.8988 246.645 36.8181 250.134 41.8516 253.086C46.7427 255.167 52.3076 254.553 57.25 252.938C62.1462 249.488 66.515 244.94 68 239C68.674 233.046 67.3685 228.837 64 224C59.7559 219.544 56.1159 216.899 49.8125 216.688C43.3077 216.783 38.3332 219.155 34.0625 224.062ZM448.125 233.938C444.512 239.145 443.047 243.611 444 250C445.759 255.24 448.187 259.112 453 262C458.394 264.618 462.941 265.648 468.789 263.996C473.642 261.81 477.813 258.394 480.191 253.598C481.878 248.179 482.181 242.638 479.832 237.391C476.69 232.447 473.691 229.353 468.125 227.312C460.062 226.127 453.594 227.712 448.125 233.938ZM83.1875 382.125C80.8934 387.679 81.247 393.652 83.0625 399.312C86.8387 404.55 90.5592 407.963 96.9375 409.562C103.293 410.519 107.426 408.579 112.75 405.312C116.686 401.267 119.174 396.709 119.5 391C119.192 385.774 117.118 381.292 113.574 377.457C109.493 373.861 105.994 372.185 100.625 371.688C92.5183 372.386 88.2669 376.17 83.1875 382.125ZM413.129 394.316C410.173 398.725 410.45 403.912 411 409C412.716 414.108 416.287 418.392 421 421C425.853 422.783 430.27 423.607 435.25 421.938C440.406 419.552 443.983 416.763 446.875 411.75C448.442 406.526 449.261 401.937 447.051 396.789C443.686 391.078 439.509 386.86 433 385C424.222 384.006 418.508 387.735 413.129 394.316ZM247 446C242.406 451.89 241.336 456.712 242 464C244.104 470.313 248.794 474.237 254.5 477.375C260.736 478.934 265.381 478.018 271 475C275.432 471.273 278.462 467.516 279.355 461.676C279.724 455.179 278.195 450.949 274 446C268.882 441.247 264.657 440.584 257.859 440.656C253.366 441.196 250.323 442.99 247 446Z" fill="black"/>
</svg>
